<svg width="18" height="18" viewBox="0 0 18 18" fill="none" xmlns="http://www.w3.org/2000/svg">
<path d="M15.75 7.49951C15.75 12.7495 9 17.2495 9 17.2495C9 17.2495 2.25 12.7495 2.25 7.49951C2.25 5.7093 2.96116 3.99241 4.22703 2.72654C5.4929 1.46067 7.20979 0.749512 9 0.749512C10.7902 0.749512 12.5071 1.46067 13.773 2.72654C15.0388 3.99241 15.75 5.7093 15.75 7.49951Z" stroke="#B3B3B3" stroke-width="1.5" stroke-linecap="round" stroke-linejoin="round"/>
<path d="M9 9.74951C10.2426 9.74951 11.25 8.74215 11.25 7.49951C11.25 6.25687 10.2426 5.24951 9 5.24951C7.75736 5.24951 6.75 6.25687 6.75 7.49951C6.75 8.74215 7.75736 9.74951 9 9.74951Z" stroke="#B3B3B3" stroke-width="1.5" stroke-linecap="round" stroke-linejoin="round"/>
</svg>
