<svg width="20" height="22" viewBox="0 0 20 22" fill="none" xmlns="http://www.w3.org/2000/svg">
<path d="M18.3998 4.60019C13.413 4.5982 11.1862 1.5566 10.5794 0.532195C10.4578 0.326595 10.239 0.200195 9.99981 0.200195C9.76061 0.200195 9.54221 0.326595 9.42021 0.532195C8.81341 1.5566 6.58661 4.5982 1.5998 4.60019C1.1582 4.60019 0.799805 4.9586 0.799805 5.4002V9.80019C0.799805 17.4386 7.42981 20.8582 9.18021 21.6274C9.43981 21.7414 9.71661 21.8002 9.99981 21.8002C10.283 21.8002 10.5598 21.7414 10.8194 21.6274C12.5698 20.8582 19.1998 17.4386 19.1998 9.80019V5.4002C19.1998 4.9586 18.8414 4.60019 18.3998 4.60019ZM8.79981 15.7314L4.03421 10.9658L5.1654 9.83459L8.79981 13.469L14.8342 7.4346L15.9654 8.56579L8.79981 15.7314Z" fill="#F2C94C"/>
</svg>
