<svg width="72" height="92" viewBox="0 0 72 92" fill="none" xmlns="http://www.w3.org/2000/svg">
<g filter="url(#filter0_d_108_719)">
<rect x="4" width="64" height="26" rx="10" fill="#2C4EB2" fill-opacity="0.85"/>
<path d="M16.6682 6.52C13.8122 6.52 11.9782 7.486 11.9782 9.054C11.9782 10.622 13.8122 11.574 16.6682 11.574C19.5242 11.574 21.3582 10.622 21.3582 9.054C21.3582 7.486 19.5242 6.52 16.6682 6.52ZM16.6682 7.962C18.4322 7.962 19.4402 8.312 19.4402 9.054C19.4402 9.782 18.4322 10.146 16.6682 10.146C14.8902 10.146 13.8962 9.782 13.8962 9.054C13.8962 8.312 14.8902 7.962 16.6682 7.962ZM12.1602 14.682V19.106H21.1202V14.682H12.1602ZM19.3002 16.152V17.636H13.9942V16.152H19.3002ZM10.8022 12.316V13.786H22.5202V12.316H10.8022ZM26.6911 6.954V8.116C26.6911 9.894 25.7811 11.644 23.5691 12.358L24.5351 13.856C27.0831 13.002 28.2451 10.72 28.2451 8.116V6.954H26.6911ZM27.0831 6.954V8.032C27.0831 10.552 28.1191 12.638 30.5131 13.464L31.4791 12.008C29.4211 11.35 28.5811 9.754 28.5811 8.032V6.954H27.0831ZM32.6691 6.282V13.87H34.5311V6.282H32.6691ZM30.1351 14.206C27.3911 14.206 25.6971 15.144 25.6971 16.726C25.6971 18.322 27.3911 19.246 30.1351 19.246C32.8791 19.246 34.5731 18.322 34.5731 16.726C34.5731 15.144 32.8791 14.206 30.1351 14.206ZM30.1351 15.648C31.8291 15.648 32.7251 15.998 32.7251 16.726C32.7251 17.454 31.8291 17.818 30.1351 17.818C28.4551 17.818 27.5591 17.454 27.5591 16.726C27.5591 15.998 28.4551 15.648 30.1351 15.648ZM30.3031 8.634V10.146H32.9351V8.634H30.3031ZM45.464 6.296V15.606H47.34V6.296H45.464ZM38.702 17.538V19.022H47.662V17.538H38.702ZM38.702 14.668V18.14H40.564V14.668H38.702ZM40.284 7.108C38.296 7.108 36.756 8.48 36.756 10.398C36.756 12.302 38.296 13.688 40.284 13.688C42.272 13.688 43.798 12.302 43.798 10.398C43.798 8.48 42.272 7.108 40.284 7.108ZM40.284 8.718C41.236 8.718 41.978 9.334 41.978 10.398C41.978 11.448 41.236 12.064 40.284 12.064C39.318 12.064 38.576 11.448 38.576 10.398C38.576 9.334 39.318 8.718 40.284 8.718ZM52.4769 6.87V8.116C52.4769 9.754 51.5669 11.434 49.3829 12.134L50.2929 13.604C52.8269 12.792 54.0169 10.566 54.0169 8.116V6.87H52.4769ZM52.8549 6.87V8.116C52.8549 10.524 54.0029 12.596 56.4809 13.38L57.3909 11.924C55.2769 11.28 54.3809 9.712 54.3809 8.116V6.87H52.8549ZM51.3709 14.584V16.068H58.3429V19.246H60.2189V14.584H51.3709ZM58.3429 6.282V14.01H60.2189V6.282H58.3429Z" fill="white"/>
<path d="M36 31.249L32.9689 25.999H39.0311L36 31.249Z" fill="#2C4EB2" fill-opacity="0.85"/>
<g filter="url(#filter1_d_108_719)">
<ellipse cx="35.5" cy="60" rx="23.5" ry="24" fill="#2C4EB2"/>
</g>
<path d="M41.6198 58.75C41.6198 62.2 38.8781 65 35.5 65C32.1218 65 29.3802 62.2 29.3802 58.75H26.9323C26.9323 63.1625 30.1268 66.7875 34.276 67.4V71.25H36.7239V67.4C40.8731 66.7875 44.0677 63.1625 44.0677 58.75H41.6198Z" fill="white"/>
<path d="M35.5 62.5C37.5318 62.5 39.1719 60.825 39.1719 58.75V51.25C39.1719 49.175 37.5318 47.5 35.5 47.5C33.4682 47.5 31.8281 49.175 31.8281 51.25V58.75C31.8281 60.825 33.4682 62.5 35.5 62.5ZM34.276 51.25C34.276 50.5625 34.8268 50 35.5 50C36.1732 50 36.724 50.5625 36.724 51.25V58.75C36.724 59.4375 36.1732 60 35.5 60C34.8268 60 34.276 59.4375 34.276 58.75V51.25Z" fill="white"/>
<path d="M35.5 62.5C37.5318 62.5 39.1719 60.825 39.1719 58.75V51.25C39.1719 49.175 37.5318 47.5 35.5 47.5C33.4682 47.5 31.8281 49.175 31.8281 51.25V58.75C31.8281 60.825 33.4682 62.5 35.5 62.5Z" fill="white"/>
</g>
<defs>
<filter id="filter0_d_108_719" x="0" y="0" width="72" height="92" filterUnits="userSpaceOnUse" color-interpolation-filters="sRGB">
<feFlood flood-opacity="0" result="BackgroundImageFix"/>
<feColorMatrix in="SourceAlpha" type="matrix" values="0 0 0 0 0 0 0 0 0 0 0 0 0 0 0 0 0 0 127 0" result="hardAlpha"/>
<feOffset dy="4"/>
<feGaussianBlur stdDeviation="2"/>
<feComposite in2="hardAlpha" operator="out"/>
<feColorMatrix type="matrix" values="0 0 0 0 0 0 0 0 0 0 0 0 0 0 0 0 0 0 0.25 0"/>
<feBlend mode="normal" in2="BackgroundImageFix" result="effect1_dropShadow_108_719"/>
<feBlend mode="normal" in="SourceGraphic" in2="effect1_dropShadow_108_719" result="shape"/>
</filter>
<filter id="filter1_d_108_719" x="9" y="36" width="53" height="54" filterUnits="userSpaceOnUse" color-interpolation-filters="sRGB">
<feFlood flood-opacity="0" result="BackgroundImageFix"/>
<feColorMatrix in="SourceAlpha" type="matrix" values="0 0 0 0 0 0 0 0 0 0 0 0 0 0 0 0 0 0 127 0" result="hardAlpha"/>
<feOffset dy="3"/>
<feGaussianBlur stdDeviation="1.5"/>
<feComposite in2="hardAlpha" operator="out"/>
<feColorMatrix type="matrix" values="0 0 0 0 0 0 0 0 0 0 0 0 0 0 0 0 0 0 0.25 0"/>
<feBlend mode="normal" in2="BackgroundImageFix" result="effect1_dropShadow_108_719"/>
<feBlend mode="normal" in="SourceGraphic" in2="effect1_dropShadow_108_719" result="shape"/>
</filter>
</defs>
</svg>
