<svg width="25" height="24" viewBox="0 0 25 24" fill="none" xmlns="http://www.w3.org/2000/svg">
<path d="M22.4894 17.1701V20.1701C22.4906 20.4486 22.4326 20.7243 22.3193 20.9794C22.206 21.2346 22.0397 21.4637 21.8312 21.652C21.6228 21.8402 21.3766 21.9836 21.1086 22.0728C20.8406 22.162 20.5566 22.1952 20.2748 22.1701C17.1488 21.8357 14.1461 20.7842 11.5079 19.1001C9.05333 17.5648 6.97233 15.5163 5.41262 13.1001C3.69577 10.4913 2.62734 7.52109 2.29389 4.4301C2.2685 4.15356 2.30189 3.87486 2.39192 3.61172C2.48195 3.34859 2.62666 3.10679 2.81683 2.90172C3.00699 2.69665 3.23845 2.53281 3.49647 2.42062C3.75449 2.30843 4.03341 2.25036 4.31548 2.2501H7.3631C7.85611 2.24532 8.33406 2.41718 8.70787 2.73363C9.08168 3.05008 9.32584 3.48954 9.39484 3.9701C9.52348 4.93016 9.76203 5.87282 10.106 6.7801C10.2426 7.13802 10.2722 7.52701 10.1912 7.90098C10.1102 8.27494 9.92194 8.61821 9.64881 8.8901L8.35865 10.1601C9.8048 12.6636 11.9106 14.7365 14.4539 16.1601L15.744 14.8901C16.0203 14.6212 16.369 14.4359 16.7489 14.3562C17.1288 14.2764 17.5239 14.3056 17.8875 14.4401C18.8092 14.7786 19.7668 15.0135 20.7421 15.1401C21.2356 15.2086 21.6863 15.4533 22.0085 15.8276C22.3306 16.2019 22.5018 16.6797 22.4894 17.1701Z" fill="white"/>
</svg>
