<svg width="16" height="16" viewBox="0 0 16 16" fill="none" xmlns="http://www.w3.org/2000/svg">
<path d="M8.77986 11.0336H7.39817V12.4671H8.77986V11.0336Z" fill="white"/>
<path d="M10.1097 4.46188C9.63479 4.01283 8.99576 3.7883 8.21855 3.7883C7.37227 3.7883 6.69869 4.05601 6.20646 4.57414C5.72287 5.09228 5.47244 5.78312 5.47244 6.62941V6.75894H6.73323L6.74187 6.63805C6.75914 6.17173 6.83686 5.80903 6.96639 5.56724C7.19092 5.14409 7.58816 4.93684 8.18401 4.93684C8.65897 4.93684 9.00439 5.05773 9.20301 5.29953C9.41026 5.54133 9.51389 5.84357 9.51389 6.18036C9.51389 6.42216 9.44481 6.65532 9.298 6.87984C9.22028 7.00937 9.11665 7.13028 8.97848 7.25981L8.5208 7.70886C8.06311 8.14927 7.7695 8.53787 7.63133 8.89193C7.5018 9.23736 7.43272 9.6864 7.43272 10.2391V10.3686H8.70215V10.2218C8.70215 9.76413 8.75396 9.4187 8.85759 9.19418C8.96121 8.96965 9.19437 8.68468 9.54843 8.33926C10.0666 7.83839 10.4034 7.4757 10.5761 7.21663C10.7488 6.94893 10.8438 6.59487 10.8438 6.17172C10.8265 5.48951 10.5847 4.91093 10.1097 4.46188Z" fill="white"/>
<path fill-rule="evenodd" clip-rule="evenodd" d="M8.08889 1.95556C4.70154 1.95556 1.95556 4.70154 1.95556 8.08889C1.95556 11.4762 4.70154 14.2222 8.08889 14.2222C11.4762 14.2222 14.2222 11.4762 14.2222 8.08889C14.2222 4.70154 11.4762 1.95556 8.08889 1.95556ZM0.888889 8.08889C0.888889 4.11244 4.11244 0.888889 8.08889 0.888889C12.0653 0.888889 15.2889 4.11244 15.2889 8.08889C15.2889 12.0653 12.0653 15.2889 8.08889 15.2889C4.11244 15.2889 0.888889 12.0653 0.888889 8.08889Z" fill="white"/>
</svg>
