<svg width="11" height="20" viewBox="0 0 11 20" fill="none" xmlns="http://www.w3.org/2000/svg">
<path d="M9.04289 19.4571C9.43342 19.8476 10.0666 19.8476 10.4571 19.4571C10.8476 19.0666 10.8476 18.4334 10.4571 18.0429L9.04289 19.4571ZM1 10L0.292893 9.29289C-0.0976311 9.68342 -0.0976311 10.3166 0.292893 10.7071L1 10ZM10.4571 1.95711C10.8476 1.56658 10.8476 0.933417 10.4571 0.542893C10.0666 0.152369 9.43342 0.152369 9.04289 0.542893L10.4571 1.95711ZM10.4571 18.0429L1.70711 9.29289L0.292893 10.7071L9.04289 19.4571L10.4571 18.0429ZM1.70711 10.7071L10.4571 1.95711L9.04289 0.542893L0.292893 9.29289L1.70711 10.7071Z" fill="#909090"/>
</svg>
