<svg width="64" height="32" viewBox="0 0 64 32" fill="none" xmlns="http://www.w3.org/2000/svg">
<rect width="64" height="26" rx="10" fill="#2C4EB2" fill-opacity="0.85"/>
<path d="M12.6682 6.52C9.81219 6.52 7.97819 7.486 7.97819 9.054C7.97819 10.622 9.81219 11.574 12.6682 11.574C15.5242 11.574 17.3582 10.622 17.3582 9.054C17.3582 7.486 15.5242 6.52 12.6682 6.52ZM12.6682 7.962C14.4322 7.962 15.4402 8.312 15.4402 9.054C15.4402 9.782 14.4322 10.146 12.6682 10.146C10.8902 10.146 9.89619 9.782 9.89619 9.054C9.89619 8.312 10.8902 7.962 12.6682 7.962ZM8.16019 14.682V19.106H17.1202V14.682H8.16019ZM15.3002 16.152V17.636H9.99419V16.152H15.3002ZM6.80219 12.316V13.786H18.5202V12.316H6.80219ZM22.6911 6.954V8.116C22.6911 9.894 21.7811 11.644 19.5691 12.358L20.5351 13.856C23.0831 13.002 24.2451 10.72 24.2451 8.116V6.954H22.6911ZM23.0831 6.954V8.032C23.0831 10.552 24.1191 12.638 26.5131 13.464L27.4791 12.008C25.4211 11.35 24.5811 9.754 24.5811 8.032V6.954H23.0831ZM28.6691 6.282V13.87H30.5311V6.282H28.6691ZM26.1351 14.206C23.3911 14.206 21.6971 15.144 21.6971 16.726C21.6971 18.322 23.3911 19.246 26.1351 19.246C28.8791 19.246 30.5731 18.322 30.5731 16.726C30.5731 15.144 28.8791 14.206 26.1351 14.206ZM26.1351 15.648C27.8291 15.648 28.7251 15.998 28.7251 16.726C28.7251 17.454 27.8291 17.818 26.1351 17.818C24.4551 17.818 23.5591 17.454 23.5591 16.726C23.5591 15.998 24.4551 15.648 26.1351 15.648ZM26.3031 8.634V10.146H28.9351V8.634H26.3031ZM41.464 6.296V15.606H43.34V6.296H41.464ZM34.702 17.538V19.022H43.662V17.538H34.702ZM34.702 14.668V18.14H36.564V14.668H34.702ZM36.284 7.108C34.296 7.108 32.756 8.48 32.756 10.398C32.756 12.302 34.296 13.688 36.284 13.688C38.272 13.688 39.798 12.302 39.798 10.398C39.798 8.48 38.272 7.108 36.284 7.108ZM36.284 8.718C37.236 8.718 37.978 9.334 37.978 10.398C37.978 11.448 37.236 12.064 36.284 12.064C35.318 12.064 34.576 11.448 34.576 10.398C34.576 9.334 35.318 8.718 36.284 8.718ZM48.4769 6.87V8.116C48.4769 9.754 47.5669 11.434 45.3829 12.134L46.2929 13.604C48.8269 12.792 50.0169 10.566 50.0169 8.116V6.87H48.4769ZM48.8549 6.87V8.116C48.8549 10.524 50.0029 12.596 52.4809 13.38L53.3909 11.924C51.2769 11.28 50.3809 9.712 50.3809 8.116V6.87H48.8549ZM47.3709 14.584V16.068H54.3429V19.246H56.2189V14.584H47.3709ZM54.3429 6.282V14.01H56.2189V6.282H54.3429Z" fill="white"/>
<path d="M32 31.249L28.9689 25.999H35.0311L32 31.249Z" fill="#2C4EB2" fill-opacity="0.85"/>
</svg>
