<svg width="18" height="18" viewBox="0 0 18 18" fill="none" xmlns="http://www.w3.org/2000/svg">
<path d="M13.735 17.9017C10.1673 17.9017 6.95898 16.4277 4.62044 14.0892C2.2819 11.7506 0.818359 8.55273 0.818359 4.98503C0.818359 4.23503 1.15169 3.56315 1.67253 3.10482L3.70898 1.16732C3.93294 0.948568 4.23503 0.818359 4.56836 0.818359C5.00065 0.818359 5.38086 1.03711 5.60482 1.37044L7.67253 4.26107C7.81836 4.46419 7.90169 4.71419 7.90169 4.98503C7.90169 5.35482 7.73502 5.69336 7.47982 5.92253L5.82357 7.38086C5.5944 7.61003 5.40169 7.93294 5.40169 8.31836C5.39648 9.23503 6.07878 10.4954 7.15169 11.5684C8.22461 12.6413 9.48503 13.3236 10.4017 13.3184C10.7819 13.3184 11.11 13.1256 11.3392 12.8965L12.8027 11.2454C13.0319 10.985 13.3652 10.8236 13.7402 10.8236C14.0111 10.8236 14.2559 10.9069 14.4642 11.0527L17.3548 13.1204C17.6882 13.3444 17.9069 13.7246 17.9069 14.1569C17.9069 14.4902 17.7767 14.7923 17.5631 15.0163L15.6256 17.0527C15.1569 17.5684 14.485 17.9017 13.735 17.9017Z" fill="#00C968"/>
</svg>
