<svg width="14" height="17" viewBox="0 0 14 17" fill="none" xmlns="http://www.w3.org/2000/svg">
<path d="M13.3913 3.34783C9.597 3.3463 7.9027 1.03204 7.441 0.252609C7.34848 0.0961739 7.182 0 7 0C6.818 0 6.65183 0.0961739 6.559 0.252609C6.0973 1.03204 4.403 3.3463 0.608696 3.34783C0.272696 3.34783 0 3.62052 0 3.95652V7.30435C0 13.1162 5.04457 15.718 6.37639 16.3033C6.57391 16.39 6.78452 16.4348 7 16.4348C7.21548 16.4348 7.42609 16.39 7.62361 16.3033C8.95543 15.718 14 13.1162 14 7.30435V3.95652C14 3.62052 13.7273 3.34783 13.3913 3.34783ZM6.08696 11.8172L2.46096 8.19122L3.32165 7.33052L6.08696 10.0958L10.6783 5.50443L11.539 6.36513L6.08696 11.8172Z" fill="#F2C94C"/>
</svg>
