<svg width="30" height="31" viewBox="0 0 30 31" fill="none" xmlns="http://www.w3.org/2000/svg">
<path d="M21.25 13.999C21.25 17.449 18.45 20.249 15 20.249C11.55 20.249 8.75 17.449 8.75 13.999H6.25C6.25 18.4115 9.5125 22.0365 13.75 22.649V26.499H16.25V22.649C20.4875 22.0365 23.75 18.4115 23.75 13.999H21.25V13.999Z" fill="white"/>
<path d="M15 17.749C17.075 17.749 18.75 16.074 18.75 13.999V6.49902C18.75 4.42402 17.075 2.74902 15 2.74902C12.925 2.74902 11.25 4.42402 11.25 6.49902V13.999C11.25 16.074 12.925 17.749 15 17.749ZM13.75 6.49902C13.75 5.81152 14.3125 5.24902 15 5.24902C15.6875 5.24902 16.25 5.81152 16.25 6.49902V13.999C16.25 14.6865 15.6875 15.249 15 15.249C14.3125 15.249 13.75 14.6865 13.75 13.999V6.49902Z" fill="white"/>
<path d="M15 17.749C17.075 17.749 18.75 16.074 18.75 13.999V6.49902C18.75 4.42402 17.075 2.74902 15 2.74902C12.925 2.74902 11.25 4.42402 11.25 6.49902V13.999C11.25 16.074 12.925 17.749 15 17.749Z" fill="white"/>
</svg>
