<svg width="375" height="24" viewBox="0 0 375 24" fill="none" xmlns="http://www.w3.org/2000/svg">
<g opacity="0.9">
<path d="M17.9 8.108V17H16.704V9.59L14.975 10.344L14.52 9.33L17.133 8.108H17.9ZM19.5613 12.554C19.5613 11.202 19.8949 10.0883 20.5623 9.213C21.2296 8.33767 22.0876 7.9 23.1363 7.9C24.1849 7.9 25.0429 8.342 25.7103 9.226C26.3776 10.1013 26.7113 11.2107 26.7113 12.554C26.7113 13.8887 26.3776 15.0023 25.7103 15.895C25.0429 16.7703 24.1849 17.208 23.1363 17.208C22.0876 17.208 21.2296 16.7703 20.5623 15.895C19.8949 15.0023 19.5613 13.8887 19.5613 12.554ZM25.4893 12.554C25.4893 11.5313 25.2726 10.6907 24.8393 10.032C24.4146 9.37333 23.8469 9.044 23.1363 9.044C22.4256 9.044 21.8579 9.37333 21.4333 10.032C20.9999 10.6907 20.7833 11.5313 20.7833 12.554C20.7833 13.5767 20.9999 14.4217 21.4333 15.089C21.8579 15.739 22.4256 16.064 23.1363 16.064C23.8469 16.064 24.4146 15.7347 24.8393 15.076C25.2726 14.4087 25.4893 13.568 25.4893 12.554ZM29.6713 11.436C29.6713 11.6787 29.5846 11.8867 29.4113 12.06C29.2466 12.2333 29.0386 12.32 28.7873 12.32C28.5446 12.32 28.3366 12.2333 28.1633 12.06C27.99 11.8867 27.9033 11.6787 27.9033 11.436C27.9033 11.1847 27.99 10.9767 28.1633 10.812C28.3366 10.6387 28.5446 10.552 28.7873 10.552C29.0386 10.552 29.2466 10.6387 29.4113 10.812C29.5846 10.9767 29.6713 11.1847 29.6713 11.436ZM29.6713 16.194C29.6713 16.4367 29.5846 16.6447 29.4113 16.818C29.2466 16.9913 29.0386 17.078 28.7873 17.078C28.5446 17.078 28.3366 16.9913 28.1633 16.818C27.99 16.6447 27.9033 16.4367 27.9033 16.194C27.9033 15.9427 27.99 15.7347 28.1633 15.57C28.3366 15.3967 28.5446 15.31 28.7873 15.31C29.0386 15.31 29.2466 15.3967 29.4113 15.57C29.5846 15.7347 29.6713 15.9427 29.6713 16.194ZM30.8728 12.554C30.8728 11.202 31.2064 10.0883 31.8738 9.213C32.5411 8.33767 33.3991 7.9 34.4478 7.9C35.4964 7.9 36.3544 8.342 37.0218 9.226C37.6891 10.1013 38.0228 11.2107 38.0228 12.554C38.0228 13.8887 37.6891 15.0023 37.0218 15.895C36.3544 16.7703 35.4964 17.208 34.4478 17.208C33.3991 17.208 32.5411 16.7703 31.8738 15.895C31.2064 15.0023 30.8728 13.8887 30.8728 12.554ZM36.8008 12.554C36.8008 11.5313 36.5841 10.6907 36.1508 10.032C35.7261 9.37333 35.1584 9.044 34.4478 9.044C33.7371 9.044 33.1694 9.37333 32.7448 10.032C32.3114 10.6907 32.0948 11.5313 32.0948 12.554C32.0948 13.5767 32.3114 14.4217 32.7448 15.089C33.1694 15.739 33.7371 16.064 34.4478 16.064C35.1584 16.064 35.7261 15.7347 36.1508 15.076C36.5841 14.4087 36.8008 13.568 36.8008 12.554ZM39.1628 12.554C39.1628 11.202 39.4965 10.0883 40.1638 9.213C40.8312 8.33767 41.6892 7.9 42.7378 7.9C43.7865 7.9 44.6445 8.342 45.3118 9.226C45.9792 10.1013 46.3128 11.2107 46.3128 12.554C46.3128 13.8887 45.9792 15.0023 45.3118 15.895C44.6445 16.7703 43.7865 17.208 42.7378 17.208C41.6892 17.208 40.8312 16.7703 40.1638 15.895C39.4965 15.0023 39.1628 13.8887 39.1628 12.554ZM45.0908 12.554C45.0908 11.5313 44.8742 10.6907 44.4408 10.032C44.0162 9.37333 43.4485 9.044 42.7378 9.044C42.0272 9.044 41.4595 9.37333 41.0348 10.032C40.6015 10.6907 40.3848 11.5313 40.3848 12.554C40.3848 13.5767 40.6015 14.4217 41.0348 15.089C41.4595 15.739 42.0272 16.064 42.7378 16.064C43.4485 16.064 44.0162 15.7347 44.4408 15.076C44.8742 14.4087 45.0908 13.568 45.0908 12.554Z" fill="black" fill-opacity="0.65"/>
</g>
<path d="M338.006 17.5358L344.79 9.08333C344.527 8.885 341.914 6 338 6C334.08 6 331.472 8.885 331.21 9.08333L337.994 17.5358L338 17.5417L338.006 17.5358Z" fill="black" fill-opacity="0.65"/>
<path d="M314.167 17.8333H325.834V6.16663L314.167 17.8333Z" fill="black" fill-opacity="0.65"/>
<path d="M357.208 7.33329H355.371V6.16663H352.921V7.33329H351.083V16.9583H357.208V7.33329Z" fill="black" fill-opacity="0.65"/>
</svg>
