<svg width="360" height="42" viewBox="0 0 360 42" fill="none" xmlns="http://www.w3.org/2000/svg">
<rect width="360" height="42" fill="white"/>
<rect x="273" y="14" width="14" height="14" rx="2" fill="#949494"/>
<path fill-rule="evenodd" clip-rule="evenodd" d="M83.4842 14.1461C84.1507 13.7449 85 14.2249 85 15.0028V26.9973C85 27.7752 84.1507 28.2553 83.4842 27.854L73.5222 21.8568C72.8765 21.4681 72.8765 20.532 73.5222 20.1433L83.4842 14.1461Z" fill="#949494"/>
<path fill-rule="evenodd" clip-rule="evenodd" d="M188 21C188 25.4183 184.418 29 180 29C175.582 29 172 25.4183 172 21C172 16.5817 175.582 13 180 13C184.418 13 188 16.5817 188 21ZM187 21C187 24.866 183.866 28 180 28C176.134 28 173 24.866 173 21C173 17.134 176.134 14 180 14C183.866 14 187 17.134 187 21ZM180 27C183.314 27 186 24.3137 186 21C186 17.6863 183.314 15 180 15C176.686 15 174 17.6863 174 21C174 24.3137 176.686 27 180 27Z" fill="#949494"/>
<rect width="360" height="1" fill="#E0E0E0"/>
</svg>
