<svg width="40" height="40" viewBox="0 0 40 40" fill="none" xmlns="http://www.w3.org/2000/svg">
<circle cx="20" cy="20" r="20" fill="#E3E7ED"/>
<path d="M26.25 18.7505C26.25 22.2005 23.45 25.0005 20 25.0005C16.55 25.0005 13.75 22.2005 13.75 18.7505H11.25C11.25 23.163 14.5125 26.788 18.75 27.4005V31.2505H21.25V27.4005C25.4875 26.788 28.75 23.163 28.75 18.7505H26.25V18.7505Z" fill="#2C4EB2"/>
<path d="M20 22.5005C22.075 22.5005 23.75 20.8255 23.75 18.7505V11.2505C23.75 9.17549 22.075 7.50049 20 7.50049C17.925 7.50049 16.25 9.17549 16.25 11.2505V18.7505C16.25 20.8255 17.925 22.5005 20 22.5005ZM18.75 11.2505C18.75 10.563 19.3125 10.0005 20 10.0005C20.6875 10.0005 21.25 10.563 21.25 11.2505V18.7505C21.25 19.438 20.6875 20.0005 20 20.0005C19.3125 20.0005 18.75 19.438 18.75 18.7505V11.2505Z" fill="white"/>
<path d="M20 22.5005C22.075 22.5005 23.75 20.8255 23.75 18.7505V11.2505C23.75 9.17549 22.075 7.50049 20 7.50049C17.925 7.50049 16.25 9.17549 16.25 11.2505V18.7505C16.25 20.8255 17.925 22.5005 20 22.5005Z" fill="#2C4EB2"/>
</svg>
