<svg width="33" height="38" viewBox="0 0 33 38" fill="none" xmlns="http://www.w3.org/2000/svg">
<circle cx="16.5" cy="16.5" r="15.18" fill="white" stroke="#2C4EB2" stroke-width="2.64"/>
<path d="M16.4737 37.9346L19.482 32.724H13.4654L16.4737 37.9346Z" fill="#2C4EB1"/>
<path d="M21.5663 26.4001C17.4325 26.4001 13.7151 24.6917 11.0055 21.9813C8.29586 19.2709 6.6001 15.5644 6.6001 11.4294C6.6001 10.5601 6.98632 9.78138 7.5898 9.25016L9.94938 7.00455C10.2089 6.75101 10.5589 6.6001 10.9451 6.6001C11.446 6.6001 11.8865 6.85363 12.146 7.23998L14.5418 10.5903C14.7108 10.8257 14.8074 11.1155 14.8074 11.4294C14.8074 11.858 14.6142 12.2503 14.3185 12.516L12.3995 14.2062C12.134 14.4718 11.9107 14.8461 11.9107 15.2928C11.9046 16.3552 12.6952 17.8161 13.9383 19.0596C15.1815 20.3031 16.6419 21.0939 17.704 21.0879C18.1446 21.0879 18.5248 20.8645 18.7903 20.5989L20.486 18.6853C20.7516 18.3835 21.1378 18.1964 21.5723 18.1964C21.8861 18.1964 22.1697 18.293 22.4111 18.462L25.7604 20.8585C26.1466 21.1181 26.4001 21.5588 26.4001 22.0598C26.4001 22.4461 26.2492 22.7963 26.0018 23.0558L23.7569 25.4161C23.2137 26.0138 22.4353 26.4001 21.5663 26.4001Z" fill="#2C4EB1"/>
</svg>
