<svg width="19" height="19" viewBox="0 0 19 19" fill="none" xmlns="http://www.w3.org/2000/svg">
<path d="M14.2083 18.7917C10.2839 18.7917 6.75469 17.1703 4.18229 14.5979C1.6099 12.0255 0 8.50781 0 4.58333C0 3.75833 0.366667 3.01927 0.939583 2.5151L3.17969 0.383854C3.42604 0.143229 3.75833 0 4.125 0C4.60052 0 5.01875 0.240625 5.2651 0.607292L7.53958 3.78698C7.7 4.01042 7.79167 4.28542 7.79167 4.58333C7.79167 4.9901 7.60833 5.3625 7.3276 5.61458L5.50573 7.21875C5.25365 7.47083 5.04167 7.82604 5.04167 8.25C5.03594 9.25833 5.78646 10.6448 6.96667 11.825C8.14688 13.0052 9.53333 13.7557 10.5417 13.75C10.9599 13.75 11.3208 13.538 11.5729 13.2859L13.1828 11.4698C13.4349 11.1833 13.8016 11.0057 14.2141 11.0057C14.512 11.0057 14.7812 11.0974 15.0104 11.2578L18.1901 13.5323C18.5568 13.7786 18.7974 14.1969 18.7974 14.6724C18.7974 15.0391 18.6542 15.3714 18.4193 15.6177L16.288 17.8578C15.7724 18.425 15.0333 18.7917 14.2083 18.7917Z" fill="#2C4EB1"/>
</svg>
