<svg width="20" height="20" viewBox="0 0 20 20" fill="none" xmlns="http://www.w3.org/2000/svg">
<circle cx="10" cy="10" r="9.5" fill="white" stroke="#2C4EB2"/>
<path d="M10.9612 13.8682H8.88867V16.0184H10.9612V13.8682Z" fill="#2C4EB2"/>
<path d="M12.9569 4.01036C12.2445 3.33679 11.2859 3 10.1201 3C8.85072 3 7.84035 3.40156 7.10201 4.17876C6.37662 4.95596 6.00098 5.99223 6.00098 7.26166V7.45596H7.89217L7.90512 7.27462C7.93103 6.57513 8.04761 6.03109 8.24191 5.6684C8.5787 5.03369 9.17455 4.7228 10.0683 4.7228C10.7808 4.7228 11.2989 4.90415 11.5968 5.26684C11.9077 5.62953 12.0632 6.08291 12.0632 6.58809C12.0632 6.95078 11.9595 7.30052 11.7393 7.63731C11.6227 7.83161 11.4673 8.01296 11.26 8.20726L10.5735 8.88083C9.88699 9.54145 9.44657 10.1244 9.23932 10.6554C9.04502 11.1736 8.94139 11.8472 8.94139 12.6762V12.8705H10.8455V12.6503C10.8455 11.9637 10.9233 11.4456 11.0787 11.1088C11.2341 10.772 11.5839 10.3446 12.115 9.82643C12.8922 9.07513 13.3973 8.53109 13.6564 8.14249C13.9155 7.74093 14.058 7.20985 14.058 6.57513C14.0321 5.55182 13.6694 4.68394 12.9569 4.01036Z" fill="#2C4EB2"/>
</svg>
