<svg width="24" height="24" viewBox="0 0 24 24" fill="none" xmlns="http://www.w3.org/2000/svg">
<path d="M20.3998 5.60019C15.413 5.5982 13.1862 2.5566 12.5794 1.5322C12.4578 1.3266 12.239 1.2002 11.9998 1.2002C11.7606 1.2002 11.5422 1.3266 11.4202 1.5322C10.8134 2.5566 8.58661 5.5982 3.5998 5.60019C3.1582 5.60019 2.7998 5.9586 2.7998 6.4002V10.8002C2.7998 18.4386 9.42981 21.8582 11.1802 22.6274C11.4398 22.7414 11.7166 22.8002 11.9998 22.8002C12.283 22.8002 12.5598 22.7414 12.8194 22.6274C14.5698 21.8582 21.1998 18.4386 21.1998 10.8002V6.4002C21.1998 5.9586 20.8414 5.60019 20.3998 5.60019ZM10.7998 16.7314L6.03421 11.9658L7.1654 10.8346L10.7998 14.469L16.8342 8.4346L17.9654 9.56579L10.7998 16.7314Z" fill="#F2C94C"/>
</svg>
