<svg width="33" height="38" viewBox="0 0 33 38" fill="none" xmlns="http://www.w3.org/2000/svg">
<circle cx="16.5" cy="16.5" r="15.18" fill="white" stroke="#F2C94C" stroke-width="2.64"/>
<path d="M16.5001 37.9346L19.5083 32.724H13.4918L16.5001 37.9346Z" fill="#F2C94C"/>
<line x1="16.5017" y1="9.55227" x2="16.5017" y2="23.447" stroke="white" stroke-width="3.47368" stroke-linecap="round"/>
<line x1="1.73684" y1="-1.73684" x2="15.6316" y2="-1.73684" transform="matrix(1 0 0 -1 7.81738 14.7627)" stroke="white" stroke-width="3.47368" stroke-linecap="round"/>
<path d="M25.7399 9.46012C20.2544 9.45792 17.8049 6.11216 17.1374 4.98532C17.0037 4.75916 16.763 4.62012 16.4999 4.62012C16.2368 4.62012 15.9965 4.75916 15.8623 4.98532C15.1948 6.11216 12.7454 9.45792 7.25988 9.46012C6.77412 9.46012 6.37988 9.85436 6.37988 10.3401V15.1801C6.37988 23.5824 13.6729 27.3439 15.5983 28.19C15.8839 28.3154 16.1884 28.3801 16.4999 28.3801C16.8114 28.3801 17.1159 28.3154 17.4014 28.19C19.3269 27.3439 26.6199 23.5824 26.6199 15.1801V10.3401C26.6199 9.85436 26.2256 9.46012 25.7399 9.46012ZM15.1799 21.7044L9.93772 16.4623L11.182 15.218L15.1799 19.2158L21.8177 12.578L23.062 13.8223L15.1799 21.7044Z" fill="#F2C94C"/>
</svg>
