<svg width="38" height="38" viewBox="0 0 38 38" fill="none" xmlns="http://www.w3.org/2000/svg">
<path d="M26.8125 17.4375C26.8125 21.75 23.3125 25.25 19 25.25C14.6875 25.25 11.1875 21.75 11.1875 17.4375H8.0625C8.0625 22.9531 12.1406 27.4844 17.4375 28.25V33.0625H20.5625V28.25C25.8594 27.4844 29.9375 22.9531 29.9375 17.4375H26.8125V17.4375Z" fill="white"/>
<path d="M19 22.125C21.5937 22.125 23.6875 20.0312 23.6875 17.4375V8.0625C23.6875 5.46875 21.5937 3.375 19 3.375C16.4063 3.375 14.3125 5.46875 14.3125 8.0625V17.4375C14.3125 20.0312 16.4063 22.125 19 22.125ZM17.4375 8.0625C17.4375 7.20312 18.1406 6.5 19 6.5C19.8594 6.5 20.5625 7.20312 20.5625 8.0625V17.4375C20.5625 18.2969 19.8594 19 19 19C18.1406 19 17.4375 18.2969 17.4375 17.4375V8.0625Z" fill="white"/>
<path d="M19 22.125C21.5937 22.125 23.6875 20.0312 23.6875 17.4375V8.0625C23.6875 5.46875 21.5937 3.375 19 3.375C16.4063 3.375 14.3125 5.46875 14.3125 8.0625V17.4375C14.3125 20.0312 16.4063 22.125 19 22.125Z" fill="white"/>
</svg>
