<svg width="114" height="210" viewBox="0 0 114 210" fill="none" xmlns="http://www.w3.org/2000/svg">
<path d="M88.6888 204.498H83.6919L81.3147 185.224H88.6899L88.6888 204.498Z" fill="#FFB6B6"/>
<path d="M89.9634 209.342L73.8511 209.341V209.137C73.8512 207.474 74.512 205.879 75.688 204.703C76.8641 203.527 78.4592 202.866 80.1224 202.866H80.1228L83.0659 200.633L88.5572 202.866L89.9637 202.867L89.9634 209.342Z" fill="#3C3B4A"/>
<path d="M69.3246 201.349L64.4503 202.45L57.8857 184.172L65.0799 182.548L69.3246 201.349Z" fill="#FFB6B6"/>
<path d="M71.6348 205.793L55.9181 209.342L55.8732 209.143C55.507 207.521 55.8001 205.819 56.6883 204.413C57.5764 203.007 58.9868 202.011 60.6091 201.644L60.6095 201.644L62.9885 198.818L68.8368 199.787L70.2087 199.477L71.6348 205.793Z" fill="#3C3B4A"/>
<path d="M95.0178 86.666C97.3606 93.732 97.1129 101.402 94.4546 109.634L93.3183 155.981C95.1969 158.049 96.3758 166.479 93.4819 172.515C89.6176 180.576 92.2798 191.723 89.5481 197.07H81.6248L79.6777 175.298L77.9628 172.843L77.7019 153.206C76.6496 150.714 75.4303 148.243 77.5706 145.357L77.5135 141.946L77.2093 123.763L65.26 141.237C64.9205 145.191 62.899 147.263 60.2226 148.603L63.9234 164.936C70.3958 170.476 68.8129 179.05 68.9197 186.987L71.0419 196.353L61.2903 197.225L56.9869 184.523L52.1485 176.696L43.7334 145.405L49.6019 131.784L52.0004 126.218L65.3951 95.1297L95.0178 86.666Z" fill="#3C3B4A"/>
<path d="M18.0279 61.4444C18.3828 61.8499 18.811 62.1615 19.2824 62.3571C19.7538 62.5527 20.2569 62.6276 20.7564 62.5765C21.2558 62.5255 21.7394 62.3496 22.173 62.0614C22.6067 61.7733 22.9799 61.3797 23.2663 60.9086L35 64.6846L33.0741 57.7768L22.2268 55.2501C21.5035 54.7516 20.6457 54.5743 19.8158 54.7516C18.9859 54.9289 18.2417 55.4485 17.7241 56.2121C17.2066 56.9756 16.9516 57.93 17.0076 58.8943C17.0636 59.8587 17.4266 60.766 18.0279 61.4444V61.4444Z" fill="#FFB8B8"/>
<path d="M27.9645 56.3274L39.5474 56.2334C42.6711 55.2671 45.9642 55.1846 49.1243 55.9934L49.7389 56.1507L54.5727 55.5441C57.4546 49.1694 62.8019 43.4061 69.9804 38.0968C71.063 37.1313 72.318 36.4305 73.6629 36.0405C75.0078 35.6505 76.4121 35.58 77.7834 35.8339C79.1547 36.0878 80.4618 36.6601 81.6188 37.5133C82.7758 38.3665 83.7564 39.4812 84.496 40.784V40.784C85.8313 43.1424 86.3014 45.9766 85.81 48.7061C85.3186 51.4356 83.9029 53.854 81.8528 55.4661L59.9788 69.6976C58.0596 70.9463 55.8796 71.6206 53.6535 71.654V71.654L53.6004 71.6846L41.1226 66.5111L34.7038 65.6072L26 62.808L27.9645 56.3274Z" fill="white"/>
<path d="M73.3848 26.6782C79.9548 26.6782 85.2808 21.3522 85.2808 14.7822C85.2808 8.21225 79.9548 2.88623 73.3848 2.88623C66.8148 2.88623 61.4888 8.21225 61.4888 14.7822C61.4888 21.3522 66.8148 26.6782 73.3848 26.6782Z" fill="#FFB8B8"/>
<path d="M84.4946 22.3266C85.3763 21.0685 86.0016 19.0536 86.3711 17.5809C86.8653 15.6417 86.9465 13.6204 86.6096 11.6478C86.2726 9.67527 85.5249 7.79552 84.415 6.13039C84.0054 5.45175 83.4184 4.89774 82.7173 4.52808C81.9975 4.20672 81.0484 4.28328 80.5467 4.89122C80.5452 4.35777 80.4343 3.8303 80.221 3.34135C80.0077 2.8524 79.6964 2.41236 79.3064 2.04838C78.5202 1.32449 77.576 0.793742 76.5489 0.498211C74.5703 -0.105158 72.4652 -0.161584 70.457 0.334926C68.4489 0.831437 66.6126 1.86236 65.1431 3.31829C64.569 3.90243 64.7738 0.983644 64.1363 1.49778C63.5188 2.0501 62.7096 2.33878 61.8819 2.30204C61.0675 2.2153 59.5696 5.11736 59.561 4.29843C58.7042 5.15697 58.3268 8.77754 58.5948 9.96047C58.8628 11.1434 62.8498 10.6206 63.993 11.026C64.7502 11.2945 65.5727 11.3036 66.3569 11.4784C67.7512 11.8387 68.9653 12.697 69.7701 13.8912C70.5748 15.0855 70.9144 16.533 70.7249 17.9606C71.2266 17.286 71.8339 16.6969 72.5235 16.2159C72.8709 15.9785 73.2699 15.8274 73.6874 15.7753C74.105 15.7232 74.5289 15.7715 74.924 15.9162C75.2806 16.1076 75.5944 16.3698 75.846 16.6868C76.0976 17.0038 76.2817 17.3689 76.3871 17.7596C76.6467 18.5245 76.7473 19.3365 77.0118 20.0997C77.7877 22.3391 78.188 24.6899 80.3509 25.2209C82.0578 25.6399 83.2907 24.0444 84.4946 22.3266Z" fill="#3C3B4A"/>
<path d="M96.0329 84.3079L94.7268 81.6956C93.1279 71.7898 91.5482 62.5506 93.6942 54.2399C93.8291 46.985 91.5867 40.1692 85.3605 36.4473L82.5517 34.7675L81.13 31.1611L68.0379 31.4809L67.9993 36.2084L63.3104 43.6869V43.7177L63.6032 84.4119L64.8978 88.6115L62.9443 93.497L63.9808 96.614L89.7913 92.4875L92.7927 92.0059C93.1392 91.895 93.4735 91.7492 93.7905 91.5705C94.8675 90.9725 95.7117 90.0292 96.1871 88.8928C96.214 88.8273 96.2371 88.7657 96.2603 88.7002C96.4627 88.1697 96.5798 87.6105 96.607 87.0434C96.6539 86.0974 96.4562 85.1552 96.0329 84.3079V84.3079Z" fill="white"/>
<path opacity="0.2" d="M96.607 87.0435C96.5797 87.6107 96.4627 88.1699 96.2603 88.7003L93.7905 91.5707C93.4735 91.7493 93.1392 91.8952 92.7927 92.0061L89.7912 92.4877L94.1335 84.3234L84.5898 63.4292L96.607 87.0435Z" fill="black"/>
<path d="M106.994 111.211C106.515 110.884 106.114 110.456 105.818 109.957C105.522 109.459 105.339 108.901 105.282 108.324C105.224 107.747 105.294 107.164 105.487 106.617C105.679 106.07 105.989 105.571 106.395 105.157L100.114 92.5361L107.386 93.4217L112.236 105.271C112.887 105.999 113.248 106.94 113.251 107.917C113.255 108.893 112.899 109.837 112.253 110.569C111.607 111.301 110.715 111.771 109.746 111.889C108.777 112.007 107.798 111.766 106.994 111.211V111.211Z" fill="#FFB8B8"/>
<path d="M81.5293 67.785L86.2946 67.1268C86.2946 67.1268 86.7547 74.3113 89.0341 75.4001C91.3135 76.4889 90.545 76.6681 90.8138 77.8207C91.0826 78.9734 92.299 80.7152 94.1046 81.5094C95.9102 82.3036 104.123 102.275 104.123 102.275L111.039 100.662C110.399 98.9282 109.978 97.1214 109.784 95.2833C109.542 92.5043 106.392 85.947 105.355 84.9736C104.318 84.0002 104.728 82.2842 104.19 79.979C103.653 77.6737 104.026 79.8112 103.13 75.9692C102.234 72.1272 92.161 49.1019 91.7389 45.5544C91.3167 42.007 86.3737 39.9189 86.3737 39.9189L82.5317 40.8149L81.5293 67.785Z" fill="white"/>
<path d="M69.5 20.1846C65.5 21.1846 65.5 21.1846 63.5 21.1846C64.3 23.5846 69 26.6846 72.5 26.6846L69.5 20.1846Z" fill="#D2F1FF"/>
<path d="M64.5 22.6846C66.6995 22.4667 67.905 22.1331 70 21.1846" stroke="#F8F8F8" stroke-width="0.2" stroke-linecap="round"/>
<path d="M65.9211 24.0317C67.7794 23.8139 68.7979 23.4803 70.5679 22.5317" stroke="#F8F8F8" stroke-width="0.2" stroke-linecap="round"/>
<path d="M67.7725 25.2886C69.1824 25.0707 69.9552 24.7371 71.2982 23.7886" stroke="#F8F8F8" stroke-width="0.2" stroke-linecap="round"/>
<path d="M70.3203 26.3437C70.9695 26.2094 71.3254 26.0037 71.9437 25.4189" stroke="#F8F8F8" stroke-width="0.2" stroke-linecap="round"/>
<path d="M69.5 20.6847C70.5 19.1847 71.5 18.1847 73.5 17.6847C75.1 17.2847 76 17.6848 76.5 18.1848C76.5 18.3514 77 19.1848 76.5 21.1848C76.0628 22.9337 73.6667 26.3514 72.5 26.6847" stroke="#F8F8F8" stroke-width="0.4" stroke-linecap="round"/>
<path d="M14.2822 55.7886C14.6571 56.3366 14.4036 57.0911 13.7739 57.3017L5.34793 60.1183C4.56501 60.3801 3.82007 59.634 4.08295 58.8515L7.49231 48.7024C7.75519 47.9199 8.79944 47.7749 9.26558 48.4562L14.2822 55.7886Z" fill="#C4C4C4"/>
<rect x="22.1433" y="57.689" width="3" height="10" transform="rotate(108.569 22.1433 57.689)" fill="#C4C4C4"/>
</svg>
