<svg width="18" height="18" viewBox="0 0 18 18" fill="none" xmlns="http://www.w3.org/2000/svg">
<path d="M9.00055 17.0093C13.695 17.0093 17.5005 13.2037 17.5005 8.50928C17.5005 3.81486 13.695 0.00927734 9.00055 0.00927734C4.30613 0.00927734 0.500549 3.81486 0.500549 8.50928C0.500549 13.2037 4.30613 17.0093 9.00055 17.0093Z" fill="#FFCB4C"/>
<path d="M7.2616 10.5183C7.1891 10.4603 7.1326 10.3813 7.1056 10.2863C7.0386 10.0563 7.1706 9.82726 7.4006 9.77576C9.6646 9.26526 11.1891 10.4573 11.2536 10.5083C11.4456 10.6613 11.4831 10.9308 11.3401 11.1108C11.1971 11.2898 10.9261 11.3113 10.7346 11.1593C10.6796 11.1173 9.4731 10.1978 7.6436 10.6103C7.5066 10.6408 7.3666 10.6023 7.2616 10.5183Z" fill="#65471B"/>
<path d="M6.55942 6.91479C7.14622 6.91479 7.62192 6.32022 7.62192 5.58679C7.62192 4.85335 7.14622 4.25879 6.55942 4.25879C5.97262 4.25879 5.49692 4.85335 5.49692 5.58679C5.49692 6.32022 5.97262 6.91479 6.55942 6.91479Z" fill="#65471B"/>
<path d="M12.187 7.44604C12.7738 7.44604 13.2495 6.85147 13.2495 6.11804C13.2495 5.3846 12.7738 4.79004 12.187 4.79004C11.6001 4.79004 11.1245 5.3846 11.1245 6.11804C11.1245 6.85147 11.6001 7.44604 12.187 7.44604Z" fill="#65471B"/>
<path d="M8.63792 17.5748C8.63792 17.5748 9.27042 17.3693 9.35242 16.8988C9.43892 16.4128 9.04042 16.3153 9.04042 16.3153C9.04042 16.3153 9.56092 16.2113 9.62642 15.6273C9.68792 15.0768 9.19592 14.9458 9.19592 14.9458C9.19592 14.9458 9.68092 14.7458 9.70392 14.1763C9.72292 13.6968 9.20642 13.4623 9.20642 13.4623C9.20642 13.4623 11.7254 12.8518 11.9844 12.7918C12.2424 12.7318 12.6444 12.4843 12.5189 11.9448C12.3944 11.4048 11.9169 11.3858 11.6704 11.4433C11.4234 11.5008 8.29842 12.2263 7.22042 12.4773L6.50092 12.6443C6.23092 12.7078 6.10842 12.5893 6.29892 12.3883C6.55292 12.1203 6.71542 11.8238 6.77192 11.3318C6.83142 10.8143 6.65592 10.1753 6.55542 9.92733C6.36842 9.46683 6.05292 9.10283 5.68842 8.97783C5.11992 8.78283 4.71592 9.13833 4.91742 9.75833C5.21942 10.6853 5.02142 11.4458 4.50092 11.9048C3.27642 12.9833 2.70692 13.7523 3.08592 15.3913C3.49992 17.1788 5.27442 18.3293 7.06192 17.9153L8.63792 17.5748Z" fill="#F19020"/>
<path d="M4.64791 3.17535C4.56591 3.13135 4.49641 3.06335 4.45241 2.97585C4.34441 2.76185 4.43241 2.51235 4.64891 2.41985C6.78191 1.50435 8.49841 2.39835 8.57041 2.43685C8.78691 2.55235 8.87441 2.81035 8.76591 3.01385C8.65791 3.21635 8.39591 3.28685 8.17941 3.17285C8.11791 3.14135 6.76341 2.45685 5.04041 3.19635C4.91191 3.25085 4.76691 3.23885 4.64791 3.17535ZM10.7154 5.05035C10.6374 5.00135 10.5724 4.92885 10.5344 4.83835C10.4409 4.61735 10.5459 4.37485 10.7684 4.29635C12.9589 3.52835 14.6109 4.53635 14.6799 4.57985C14.8874 4.70985 14.9574 4.97335 14.8359 5.16885C14.7149 5.36385 14.4479 5.41635 14.2404 5.28785C14.1804 5.25185 12.8769 4.47735 11.1069 5.09835C10.9739 5.14385 10.8304 5.12135 10.7154 5.05035Z" fill="#65471B"/>
</svg>
