<svg width="35" height="35" viewBox="0 0 35 35" fill="none" xmlns="http://www.w3.org/2000/svg">
<path d="M14.583 8.74967C14.583 7.13884 15.8888 5.83301 17.4997 5.83301V5.83301C19.1105 5.83301 20.4163 7.13884 20.4163 8.74967V13.1247V17.4997C20.4163 17.9513 20.4163 18.1771 20.3864 18.366C20.2217 19.406 19.406 20.2217 18.366 20.3864C18.1771 20.4163 17.9513 20.4163 17.4997 20.4163V20.4163C17.0481 20.4163 16.8223 20.4163 16.6333 20.3864C15.5933 20.2217 14.7777 19.406 14.6129 18.366C14.583 18.1771 14.583 17.9513 14.583 17.4997V12.833L14.583 8.74967Z" fill="#C4C4C4"/>
<ellipse cx="17.4997" cy="26.5417" rx="2.91667" ry="2.91667" fill="#C4C4C4"/>
<circle cx="17.5" cy="17.5" r="16.9167" stroke="#C4C4C4" stroke-width="1.16667"/>
</svg>
